<svg width="100" height="88" viewBox="0 0 100 88" fill="none" xmlns="http://www.w3.org/2000/svg">
<path d="M70.8333 20.8333C70.8333 30.3125 58.1424 47.2049 52.5694 54.1667C51.2326 55.8333 48.75 55.8333 47.4306 54.1667C41.8576 47.2049 29.1667 30.3125 29.1667 20.8333C29.1667 9.32292 38.4896 0 50 0C61.5104 0 70.8333 9.32292 70.8333 20.8333ZM72.2222 34.7917C72.8299 33.5938 73.3854 32.3958 73.8889 31.2153C73.9757 31.0069 74.0625 30.7813 74.1493 30.5729L94.2882 22.5174C97.0312 21.4236 100 23.4375 100 26.3889V73.4028C100 75.1042 98.9583 76.6319 97.3785 77.2743L72.2222 87.3264V34.7917ZM23.8889 24.0104C24.3056 26.4583 25.1389 28.9236 26.1111 31.2153C26.6146 32.3958 27.1701 33.5938 27.7778 34.7917V78.4375L5.71181 87.2743C2.96875 88.3681 0 86.3542 0 83.4028V36.3889C0 34.6875 1.04167 33.1597 2.62153 32.5174L23.9062 24.0104H23.8889ZM56.9097 57.6389C59.3229 54.6181 63.1076 49.7049 66.6667 44.2708V87.5521L33.3333 78.0208V44.2708C36.8924 49.7049 40.6771 54.6181 43.0903 57.6389C46.6493 62.0833 53.3507 62.0833 56.9097 57.6389ZM50 26.3889C53.8368 26.3889 56.9444 23.2812 56.9444 19.4444C56.9444 15.6076 53.8368 12.5 50 12.5C46.1632 12.5 43.0556 15.6076 43.0556 19.4444C43.0556 23.2812 46.1632 26.3889 50 26.3889Z" fill="#F1F2F3"/>
</svg>
